<?xml version="1.0"?>
<svg version="1.1" xmlns="http://www.w3.org/2000/svg" width="400" height="50" style=""><path fill="#de0933" d="M16.76,48.92l2.48,0l0-16.92q0-3.36,2.56-5.92t5.92-2.56q3.28,0,5.92,2.56q2.52,2.52,2.52,5.92l0,16.92l2.56,0l0-16.92q0-3.44,2.56-5.92q2.56-2.56,5.88-2.56q3.36,0,5.92,2.56t2.56,5.92l0,16.92l2.48,0l0-16.92q0-4.56-3.2-7.76t-7.76-3.2q-3,0-5.64,1.64q-2.68,1.68-3.84,4.28q-1.56-2.68-4.2-4.28q-2.76-1.64-5.76-1.64q-4.52,0-7.72,3.2q-3.24,3.24-3.24,7.76l0,16.92z M75.3136,21q-4.52,0-7.76,3.24q-3.28,3.28-3.28,7.8l0,6.04q0,4.44,3.28,7.72t7.76,3.28q4.52,0,7.8-3.28q3.24-3.24,3.24-7.72l0-6.04q0-4.56-3.24-7.8t-7.8-3.24z M83.8736,32.04l0,6.04q0,3.64-2.56,6.12q-2.52,2.4-6,2.4t-5.96-2.4q-2.56-2.48-2.56-6.12l0-6.04q0-3.36,2.56-6q2.56-2.56,5.96-2.56q3.36,0,6,2.56q2.56,2.64,2.56,6z M98.7072,23.92l15.08,0l0-3.04l-15.08,0q-2.96,0-4.96,2.32q-2.04,2.36-2.04,5.72q0,3.04,2.04,5.28q2,2.28,4.96,2.28l4,0l4.08,0q1.8,0,3.2,1.52q1.32,1.6,1.32,3.48q0,2.24-1.3,3.64t-3.22,1.4l-15.08,0l0,2.48l15.08,0q3,0,5-2.08t2-5.44q0-3.04-2-5.28q-2.04-2.24-5-2.24l-4.08,0l-4,0q-1.84,0-3.16-1.6q-1.36-1.48-1.36-3.44q0-2.24,1.3-3.62t3.22-1.38z M141.5808,20.92l-2.52,0l0,12.8l-16.88,0l0-12.8l-2.52,0l0,28.08l2.52,0l0-12.76l16.88,0l0,12.76l2.52,0l0-28.08z M158.6944,21q-4.52,0-7.76,3.24q-3.28,3.28-3.28,7.8l0,6.04q0,4.44,3.28,7.72t7.76,3.28q4.52,0,7.8-3.28q3.24-3.24,3.24-7.72l0-6.04q0-4.56-3.24-7.8t-7.8-3.24z M167.2544,32.04l0,6.04q0,3.64-2.56,6.12q-2.52,2.4-6,2.4t-5.96-2.4q-2.56-2.48-2.56-6.12l0-6.04q0-3.36,2.56-6q2.56-2.56,5.96-2.56q3.36,0,6,2.56q2.56,2.64,2.56,6z M186.448,21q-4.52,0-7.76,3.24q-3.28,3.28-3.28,7.8l0,6.04q0,4.44,3.28,7.72t7.76,3.28q4.52,0,7.8-3.28q3.24-3.24,3.24-7.72l0-6.04q0-4.56-3.24-7.8t-7.8-3.24z M195.008,32.04l0,6.04q0,3.64-2.56,6.12q-2.52,2.4-6,2.4t-5.96-2.4q-2.56-2.48-2.56-6.12l0-6.04q0-3.36,2.56-6q2.56-2.56,5.96-2.56q3.36,0,6,2.56q2.56,2.64,2.56,6z"/><path fill="#" d=""/></svg>
